  0
SECTION
  2
BLOCKS
  0
ENDSEC
  0
SECTION
  2
ENTITIES
  0
LINE
  8
0
 10
-75
 11
-74.853
 20
0
 21
2.344
  0
LINE
  8
0
 10
-74.853
 11
-66.968
 20
2.344
 21
8.46
  0
LINE
  8
0
 10
-66.968
 11
-67.93
 20
8.46
 21
9.701
  0
LINE
  8
0
 10
-67.93
 11
-74.721
 20
9.701
 21
4.433
  0
LINE
  8
0
 10
-74.721
 11
-74.557
 20
4.433
 21
7.04
  0
LINE
  8
0
 10
-74.557
 11
-66.304
 20
7.04
 21
12.648
  0
LINE
  8
0
 10
-66.304
 11
-67.187
 20
12.648
 21
13.947
  0
LINE
  8
0
 10
-67.187
 11
-74.432
 20
13.947
 21
9.023
  0
LINE
  8
0
 10
-74.432
 11
-74.409
 20
9.023
 21
9.4
  0
LINE
  8
0
 10
-74.409
 11
-73.969
 20
9.4
 21
11.707
  0
LINE
  8
0
 10
-73.969
 11
-65.379
 20
11.707
 21
16.787
  0
LINE
  8
0
 10
-65.379
 11
-66.179
 20
16.787
 21
18.138
  0
LINE
  8
0
 10
-66.179
 11
-73.576
 20
18.138
 21
13.763
  0
LINE
  8
0
 10
-73.576
 11
-73.087
 20
13.763
 21
16.329
  0
LINE
  8
0
 10
-73.087
 11
-64.196
 20
16.329
 21
20.859
  0
LINE
  8
0
 10
-64.196
 11
-64.909
 20
20.859
 21
22.258
  0
LINE
  8
0
 10
-64.909
 11
-72.715
 20
22.258
 21
18.28
  0
LINE
  8
0
 10
-72.715
 11
-72.644
 20
18.28
 21
18.652
  0
LINE
  8
0
 10
-72.644
 11
-71.918
 20
18.652
 21
20.885
  0
LINE
  8
0
 10
-71.918
 11
-62.76
 20
20.885
 21
24.848
  0
LINE
  8
0
 10
-62.76
 11
-63.383
 20
24.848
 21
26.289
  0
LINE
  8
0
 10
-63.383
 11
-71.271
 20
26.289
 21
22.876
  0
LINE
  8
0
 10
-71.271
 11
-70.464
 20
22.876
 21
25.36
  0
LINE
  8
0
 10
-70.464
 11
-61.076
 20
25.36
 21
28.74
  0
LINE
  8
0
 10
-61.076
 11
-61.608
 20
28.74
 21
30.217
  0
LINE
  8
0
 10
-61.608
 11
-69.85
 20
30.217
 21
27.25
  0
LINE
  8
0
 10
-69.85
 11
-69.733
 20
27.25
 21
27.609
  0
LINE
  8
0
 10
-69.733
 11
-68.733
 20
27.609
 21
29.734
  0
LINE
  8
0
 10
-68.733
 11
-59.151
 20
29.734
 21
32.518
  0
LINE
  8
0
 10
-59.151
 11
-59.589
 20
32.518
 21
34.026
  0
LINE
  8
0
 10
-59.589
 11
-67.842
 20
34.026
 21
31.628
  0
LINE
  8
0
 10
-67.842
 11
-66.73
 20
31.628
 21
33.992
  0
LINE
  8
0
 10
-66.73
 11
-56.992
 20
33.992
 21
36.168
  0
LINE
  8
0
 10
-56.992
 11
-57.335
 20
36.168
 21
37.7
  0
LINE
  8
0
 10
-57.335
 11
-65.884
 20
37.7
 21
35.789
  0
LINE
  8
0
 10
-65.884
 11
-65.723
 20
35.789
 21
36.132
  0
LINE
  8
0
 10
-65.723
 11
-64.465
 20
36.132
 21
38.114
  0
LINE
  8
0
 10
-64.465
 11
-54.609
 20
38.114
 21
39.676
  0
LINE
  8
0
 10
-54.609
 11
-54.854
 20
39.676
 21
41.226
  0
LINE
  8
0
 10
-54.854
 11
-63.343
 20
41.226
 21
39.882
  0
LINE
  8
0
 10
-63.343
 11
-61.943
 20
39.882
 21
42.087
  0
LINE
  8
0
 10
-61.943
 11
-52.01
 20
42.087
 21
43.026
  0
LINE
  8
0
 10
-52.01
 11
-52.157
 20
43.026
 21
44.589
  0
LINE
  8
0
 10
-52.157
 11
-60.879
 20
44.589
 21
43.765
  0
LINE
  8
0
 10
-60.879
 11
-60.676
 20
43.765
 21
44.084
  0
LINE
  8
0
 10
-60.676
 11
-59.179
 20
44.084
 21
45.893
  0
LINE
  8
0
 10
-59.179
 11
-49.205
 20
45.893
 21
46.207
  0
LINE
  8
0
 10
-49.205
 11
-49.255
 20
46.207
 21
47.776
  0
LINE
  8
0
 10
-49.255
 11
-57.845
 20
47.776
 21
47.506
  0
LINE
  8
0
 10
-57.845
 11
-56.18
 20
47.506
 21
49.519
  0
LINE
  8
0
 10
-56.18
 11
-46.207
 20
49.519
 21
49.205
  0
LINE
  8
0
 10
-46.207
 11
-46.158
 20
49.205
 21
50.775
  0
LINE
  8
0
 10
-46.158
 11
-54.914
 20
50.775
 21
51.05
  0
LINE
  8
0
 10
-54.914
 11
-54.673
 20
51.05
 21
51.341
  0
LINE
  8
0
 10
-54.673
 11
-52.961
 20
51.341
 21
52.949
  0
LINE
  8
0
 10
-52.961
 11
-43.026
 20
52.949
 21
52.01
  0
LINE
  8
0
 10
-43.026
 11
-42.878
 20
52.01
 21
53.573
  0
LINE
  8
0
 10
-42.878
 11
-51.435
 20
53.573
 21
54.382
  0
LINE
  8
0
 10
-51.435
 11
-49.531
 20
54.382
 21
56.17
  0
LINE
  8
0
 10
-49.531
 11
-39.676
 20
56.17
 21
54.609
  0
LINE
  8
0
 10
-39.676
 11
-39.43
 20
54.609
 21
56.159
  0
LINE
  8
0
 10
-39.43
 11
-48.082
 20
56.159
 21
57.53
  0
LINE
  8
0
 10
-48.082
 11
-47.807
 20
57.53
 21
57.788
  0
LINE
  8
0
 10
-47.807
 11
-45.907
 20
57.788
 21
59.169
  0
LINE
  8
0
 10
-45.907
 11
-36.168
 20
59.169
 21
56.992
  0
LINE
  8
0
 10
-36.168
 11
-35.826
 20
56.992
 21
58.524
  0
LINE
  8
0
 10
-35.826
 11
-44.213
 20
58.524
 21
60.399
  0
LINE
  8
0
 10
-44.213
 11
-42.1
 20
60.399
 21
61.935
  0
LINE
  8
0
 10
-42.1
 11
-32.518
 20
61.935
 21
59.151
  0
LINE
  8
0
 10
-32.518
 11
-32.08
 20
59.151
 21
60.658
  0
LINE
  8
0
 10
-32.08
 11
-40.493
 20
60.658
 21
63.102
  0
LINE
  8
0
 10
-40.493
 11
-40.187
 20
63.102
 21
63.325
  0
LINE
  8
0
 10
-40.187
 11
-38.129
 20
63.325
 21
64.456
  0
LINE
  8
0
 10
-38.129
 11
-28.74
 20
64.456
 21
61.076
  0
LINE
  8
0
 10
-28.74
 11
-28.208
 20
61.076
 21
62.553
  0
LINE
  8
0
 10
-28.208
 11
-36.295
 20
62.553
 21
65.464
  0
LINE
  8
0
 10
-36.295
 11
-34.006
 20
65.464
 21
66.723
  0
LINE
  8
0
 10
-34.006
 11
-24.848
 20
66.723
 21
62.76
  0
LINE
  8
0
 10
-24.848
 11
-24.225
 20
62.76
 21
64.201
  0
LINE
  8
0
 10
-24.225
 11
-32.265
 20
64.201
 21
67.68
  0
LINE
  8
0
 10
-32.265
 11
-31.933
 20
67.68
 21
67.862
  0
LINE
  8
0
 10
-31.933
 11
-29.75
 20
67.862
 21
68.727
  0
LINE
  8
0
 10
-29.75
 11
-20.859
 20
68.727
 21
64.196
  0
LINE
  8
0
 10
-20.859
 11
-20.146
 20
64.196
 21
65.595
  0
LINE
  8
0
 10
-20.146
 11
-27.804
 20
65.595
 21
69.497
  0
LINE
  8
0
 10
-27.804
 11
-25.375
 20
69.497
 21
70.459
  0
LINE
  8
0
 10
-25.375
 11
-16.787
 20
70.459
 21
65.379
  0
LINE
  8
0
 10
-16.787
 11
-15.987
 20
65.379
 21
66.731
  0
LINE
  8
0
 10
-15.987
 11
-23.528
 20
66.731
 21
71.19
  0
LINE
  8
0
 10
-23.528
 11
-23.176
 20
71.19
 21
71.329
  0
LINE
  8
0
 10
-23.176
 11
-20.902
 20
71.329
 21
71.913
  0
LINE
  8
0
 10
-20.902
 11
-12.648
 20
71.913
 21
66.304
  0
LINE
  8
0
 10
-12.648
 11
-11.766
 20
66.304
 21
67.603
  0
LINE
  8
0
 10
-11.766
 11
-18.874
 20
67.603
 21
72.434
  0
LINE
  8
0
 10
-18.874
 11
-16.344
 20
72.434
 21
73.083
  0
LINE
  8
0
 10
-16.344
 11
-8.46
 20
73.083
 21
66.968
  0
LINE
  8
0
 10
-8.46
 11
-7.498
 20
66.968
 21
68.208
  0
LINE
  8
0
 10
-7.498
 11
-14.42
 20
68.208
 21
73.578
  0
LINE
  8
0
 10
-14.42
 11
-14.054
 20
73.578
 21
73.672
  0
LINE
  8
0
 10
-14.054
 11
-11.724
 20
73.672
 21
73.966
  0
LINE
  8
0
 10
-11.724
 11
-4.238
 20
73.966
 21
67.367
  0
LINE
  8
0
 10
-4.238
 11
-3.2
 20
67.367
 21
68.544
  0
LINE
  8
0
 10
-3.2
 11
-9.647
 20
68.544
 21
74.228
  0
LINE
  8
0
 10
-9.647
 11
-7.056
 20
74.228
 21
74.556
  0
LINE
  8
0
 10
-7.056
 11
0
 20
74.556
 21
67.5
  0
LINE
  8
0
 10
0
 11
1.11
 20
67.5
 21
68.61
  0
LINE
  8
0
 10
1.11
 11
-5.084
 20
68.61
 21
74.805
  0
LINE
  8
0
 10
-5.084
 11
-4.709
 20
74.805
 21
74.852
  0
LINE
  8
0
 10
-4.709
 11
-2.361
 20
74.852
 21
74.852
  0
LINE
  8
0
 10
-2.361
 11
4.238
 20
74.852
 21
67.367
  0
LINE
  8
0
 10
4.238
 11
5.416
 20
67.367
 21
68.405
  0
LINE
  8
0
 10
5.416
 11
-0.268
 20
68.405
 21
74.852
  0
LINE
  8
0
 10
-0.268
 11
2.344
 20
74.852
 21
74.852
  0
LINE
  8
0
 10
2.344
 11
8.46
 20
74.852
 21
66.968
  0
LINE
  8
0
 10
8.46
 11
9.701
 20
66.968
 21
67.93
  0
LINE
  8
0
 10
9.701
 11
4.331
 20
67.93
 21
74.852
  0
LINE
  8
0
 10
4.331
 11
4.709
 20
74.852
 21
74.852
  0
LINE
  8
0
 10
4.709
 11
7.039
 20
74.852
 21
74.558
  0
LINE
  8
0
 10
7.039
 11
12.648
 20
74.558
 21
66.304
  0
LINE
  8
0
 10
12.648
 11
13.947
 20
66.304
 21
67.187
  0
LINE
  8
0
 10
13.947
 11
9.116
 20
67.187
 21
74.295
  0
LINE
  8
0
 10
9.116
 11
11.707
 20
74.295
 21
73.968
  0
LINE
  8
0
 10
11.707
 11
16.787
 20
73.968
 21
65.379
  0
LINE
  8
0
 10
16.787
 11
18.138
 20
65.379
 21
66.179
  0
LINE
  8
0
 10
18.138
 11
13.679
 20
66.179
 21
73.719
  0
LINE
  8
0
 10
13.679
 11
14.054
 20
73.719
 21
73.672
  0
LINE
  8
0
 10
14.054
 11
16.328
 20
73.672
 21
73.087
  0
LINE
  8
0
 10
16.328
 11
20.859
 20
73.087
 21
64.196
  0
LINE
  8
0
 10
20.859
 11
22.258
 20
64.196
 21
64.909
  0
LINE
  8
0
 10
22.258
 11
18.356
 20
64.909
 21
72.567
  0
LINE
  8
0
 10
18.356
 11
20.886
 20
72.567
 21
71.917
  0
LINE
  8
0
 10
20.886
 11
24.848
 20
71.917
 21
62.76
  0
LINE
  8
0
 10
24.848
 11
26.289
 20
62.76
 21
63.383
  0
LINE
  8
0
 10
26.289
 11
22.81
 20
63.383
 21
71.423
  0
LINE
  8
0
 10
22.81
 11
23.176
 20
71.423
 21
71.329
  0
LINE
  8
0
 10
23.176
 11
25.36
 20
71.329
 21
70.465
  0
LINE
  8
0
 10
25.36
 11
28.74
 20
70.465
 21
61.076
  0
LINE
  8
0
 10
28.74
 11
30.217
 20
61.076
 21
61.608
  0
LINE
  8
0
 10
30.217
 11
27.306
 20
61.608
 21
69.694
  0
LINE
  8
0
 10
27.306
 11
29.735
 20
69.694
 21
68.733
  0
LINE
  8
0
 10
29.735
 11
32.518
 20
68.733
 21
59.151
  0
LINE
  8
0
 10
32.518
 11
34.026
 20
59.151
 21
59.589
  0
LINE
  8
0
 10
34.026
 11
31.582
 20
59.589
 21
68.001
  0
LINE
  8
0
 10
31.582
 11
31.933
 20
68.001
 21
67.862
  0
LINE
  8
0
 10
31.933
 11
33.992
 20
67.862
 21
66.731
  0
LINE
  8
0
 10
33.992
 11
36.168
 20
66.731
 21
56.992
  0
LINE
  8
0
 10
36.168
 11
37.7
 20
56.992
 21
57.335
  0
LINE
  8
0
 10
37.7
 11
35.826
 20
57.335
 21
65.722
  0
LINE
  8
0
 10
35.826
 11
38.115
 20
65.722
 21
64.464
  0
LINE
  8
0
 10
38.115
 11
39.676
 20
64.464
 21
54.609
  0
LINE
  8
0
 10
39.676
 11
41.226
 20
54.609
 21
54.854
  0
LINE
  8
0
 10
41.226
 11
39.856
 20
54.854
 21
63.507
  0
LINE
  8
0
 10
39.856
 11
40.187
 20
63.507
 21
63.325
  0
LINE
  8
0
 10
40.187
 11
42.087
 20
63.325
 21
61.944
  0
LINE
  8
0
 10
42.087
 11
43.026
 20
61.944
 21
52.01
  0
LINE
  8
0
 10
43.026
 11
44.589
 20
52.01
 21
52.157
  0
LINE
  8
0
 10
44.589
 11
43.78
 20
52.157
 21
60.714
  0
LINE
  8
0
 10
43.78
 11
45.894
 20
60.714
 21
59.179
  0
LINE
  8
0
 10
45.894
 11
46.207
 20
59.179
 21
49.205
  0
LINE
  8
0
 10
46.207
 11
47.776
 20
49.205
 21
49.255
  0
LINE
  8
0
 10
47.776
 11
47.501
 20
49.255
 21
58.011
  0
LINE
  8
0
 10
47.501
 11
47.807
 20
58.011
 21
57.788
  0
LINE
  8
0
 10
47.807
 11
49.519
 20
57.788
 21
56.181
  0
LINE
  8
0
 10
49.519
 11
49.205
 20
56.181
 21
46.207
  0
LINE
  8
0
 10
49.205
 11
50.775
 20
46.207
 21
46.158
  0
LINE
  8
0
 10
50.775
 11
51.045
 20
46.158
 21
54.748
  0
LINE
  8
0
 10
51.045
 11
52.949
 20
54.748
 21
52.96
  0
LINE
  8
0
 10
52.949
 11
52.01
 20
52.96
 21
43.026
  0
LINE
  8
0
 10
52.01
 11
53.573
 20
43.026
 21
42.878
  0
LINE
  8
0
 10
53.573
 11
54.397
 20
42.878
 21
51.6
  0
LINE
  8
0
 10
54.397
 11
54.673
 20
51.6
 21
51.341
  0
LINE
  8
0
 10
54.673
 11
56.17
 20
51.341
 21
49.531
  0
LINE
  8
0
 10
56.17
 11
54.609
 20
49.531
 21
39.676
  0
LINE
  8
0
 10
54.609
 11
56.159
 20
39.676
 21
39.43
  0
LINE
  8
0
 10
56.159
 11
57.504
 20
39.43
 21
47.919
  0
LINE
  8
0
 10
57.504
 11
59.169
 20
47.919
 21
45.906
  0
LINE
  8
0
 10
59.169
 11
56.992
 20
45.906
 21
36.168
  0
LINE
  8
0
 10
56.992
 11
58.524
 20
36.168
 21
35.826
  0
LINE
  8
0
 10
58.524
 11
60.435
 20
35.826
 21
44.375
  0
LINE
  8
0
 10
60.435
 11
60.676
 20
44.375
 21
44.084
  0
LINE
  8
0
 10
60.676
 11
61.935
 20
44.084
 21
42.101
  0
LINE
  8
0
 10
61.935
 11
59.151
 20
42.101
 21
32.518
  0
LINE
  8
0
 10
59.151
 11
60.658
 20
32.518
 21
32.08
  0
LINE
  8
0
 10
60.658
 11
63.056
 20
32.08
 21
40.334
  0
LINE
  8
0
 10
63.056
 11
64.456
 20
40.334
 21
38.128
  0
LINE
  8
0
 10
64.456
 11
61.076
 20
38.128
 21
28.74
  0
LINE
  8
0
 10
61.076
 11
62.553
 20
28.74
 21
28.208
  0
LINE
  8
0
 10
62.553
 11
65.52
 20
28.208
 21
36.451
  0
LINE
  8
0
 10
65.52
 11
65.723
 20
36.451
 21
36.132
  0
LINE
  8
0
 10
65.723
 11
66.723
 20
36.132
 21
34.006
  0
LINE
  8
0
 10
66.723
 11
62.76
 20
34.006
 21
24.848
  0
LINE
  8
0
 10
62.76
 11
64.201
 20
24.848
 21
24.225
  0
LINE
  8
0
 10
64.201
 11
67.614
 20
24.225
 21
32.113
  0
LINE
  8
0
 10
67.614
 11
68.726
 20
32.113
 21
29.749
  0
LINE
  8
0
 10
68.726
 11
64.196
 20
29.749
 21
20.859
  0
LINE
  8
0
 10
64.196
 11
65.595
 20
20.859
 21
20.146
  0
LINE
  8
0
 10
65.595
 11
69.572
 20
20.146
 21
27.951
  0
LINE
  8
0
 10
69.572
 11
69.733
 20
27.951
 21
27.609
  0
LINE
  8
0
 10
69.733
 11
70.459
 20
27.609
 21
25.376
  0
LINE
  8
0
 10
70.459
 11
65.379
 20
25.376
 21
16.787
  0
LINE
  8
0
 10
65.379
 11
66.731
 20
16.787
 21
15.987
  0
LINE
  8
0
 10
66.731
 11
71.106
 20
15.987
 21
23.385
  0
LINE
  8
0
 10
71.106
 11
71.913
 20
23.385
 21
20.901
  0
LINE
  8
0
 10
71.913
 11
66.304
 20
20.901
 21
12.648
  0
LINE
  8
0
 10
66.304
 11
67.603
 20
12.648
 21
11.766
  0
LINE
  8
0
 10
67.603
 11
72.527
 20
11.766
 21
19.011
  0
LINE
  8
0
 10
72.527
 11
72.644
 20
19.011
 21
18.652
  0
LINE
  8
0
 10
72.644
 11
73.084
 20
18.652
 21
16.345
  0
LINE
  8
0
 10
73.084
 11
66.968
 20
16.345
 21
8.46
  0
LINE
  8
0
 10
66.968
 11
68.208
 20
8.46
 21
7.498
  0
LINE
  8
0
 10
68.208
 11
73.476
 20
7.498
 21
14.289
  0
LINE
  8
0
 10
73.476
 11
73.965
 20
14.289
 21
11.723
  0
LINE
  8
0
 10
73.965
 11
67.367
 20
11.723
 21
4.238
  0
LINE
  8
0
 10
67.367
 11
68.544
 20
4.238
 21
3.2
  0
LINE
  8
0
 10
68.544
 11
74.338
 20
3.2
 21
9.771
  0
LINE
  8
0
 10
74.338
 11
74.409
 20
9.771
 21
9.4
  0
LINE
  8
0
 10
74.409
 11
74.556
 20
9.4
 21
7.056
  0
LINE
  8
0
 10
74.556
 11
67.5
 20
7.056
 21
0
  0
LINE
  8
0
 10
67.5
 11
68.61
 20
0
 21
-1.11
  0
LINE
  8
0
 10
68.61
 11
74.687
 20
-1.11
 21
4.967
  0
LINE
  8
0
 10
74.687
 11
74.852
 20
4.967
 21
2.36
  0
LINE
  8
0
 10
74.852
 11
67.367
 20
2.36
 21
-4.238
  0
LINE
  8
0
 10
67.367
 11
68.405
 20
-4.238
 21
-5.416
  0
LINE
  8
0
 10
68.405
 11
74.976
 20
-5.416
 21
0.377
  0
LINE
  8
0
 10
74.976
 11
75
 20
0.377
 21
0
  0
LINE
  8
0
 10
75
 11
74.853
 20
0
 21
-2.344
  0
LINE
  8
0
 10
74.853
 11
66.968
 20
-2.344
 21
-8.46
  0
LINE
  8
0
 10
66.968
 11
67.93
 20
-8.46
 21
-9.701
  0
LINE
  8
0
 10
67.93
 11
74.721
 20
-9.701
 21
-4.433
  0
LINE
  8
0
 10
74.721
 11
74.557
 20
-4.433
 21
-7.04
  0
LINE
  8
0
 10
74.557
 11
66.304
 20
-7.04
 21
-12.648
  0
LINE
  8
0
 10
66.304
 11
67.187
 20
-12.648
 21
-13.947
  0
LINE
  8
0
 10
67.187
 11
74.432
 20
-13.947
 21
-9.023
  0
LINE
  8
0
 10
74.432
 11
74.409
 20
-9.023
 21
-9.4
  0
LINE
  8
0
 10
74.409
 11
73.969
 20
-9.4
 21
-11.707
  0
LINE
  8
0
 10
73.969
 11
65.379
 20
-11.707
 21
-16.787
  0
LINE
  8
0
 10
65.379
 11
66.179
 20
-16.787
 21
-18.138
  0
LINE
  8
0
 10
66.179
 11
73.576
 20
-18.138
 21
-13.763
  0
LINE
  8
0
 10
73.576
 11
73.087
 20
-13.763
 21
-16.329
  0
LINE
  8
0
 10
73.087
 11
64.196
 20
-16.329
 21
-20.859
  0
LINE
  8
0
 10
64.196
 11
64.909
 20
-20.859
 21
-22.258
  0
LINE
  8
0
 10
64.909
 11
72.715
 20
-22.258
 21
-18.28
  0
LINE
  8
0
 10
72.715
 11
72.644
 20
-18.28
 21
-18.652
  0
LINE
  8
0
 10
72.644
 11
71.918
 20
-18.652
 21
-20.885
  0
LINE
  8
0
 10
71.918
 11
62.76
 20
-20.885
 21
-24.848
  0
LINE
  8
0
 10
62.76
 11
63.383
 20
-24.848
 21
-26.289
  0
LINE
  8
0
 10
63.383
 11
71.271
 20
-26.289
 21
-22.876
  0
LINE
  8
0
 10
71.271
 11
70.464
 20
-22.876
 21
-25.36
  0
LINE
  8
0
 10
70.464
 11
61.076
 20
-25.36
 21
-28.74
  0
LINE
  8
0
 10
61.076
 11
61.608
 20
-28.74
 21
-30.217
  0
LINE
  8
0
 10
61.608
 11
69.85
 20
-30.217
 21
-27.25
  0
LINE
  8
0
 10
69.85
 11
69.733
 20
-27.25
 21
-27.609
  0
LINE
  8
0
 10
69.733
 11
68.733
 20
-27.609
 21
-29.734
  0
LINE
  8
0
 10
68.733
 11
59.151
 20
-29.734
 21
-32.518
  0
LINE
  8
0
 10
59.151
 11
59.589
 20
-32.518
 21
-34.026
  0
LINE
  8
0
 10
59.589
 11
67.842
 20
-34.026
 21
-31.628
  0
LINE
  8
0
 10
67.842
 11
66.73
 20
-31.628
 21
-33.992
  0
LINE
  8
0
 10
66.73
 11
56.992
 20
-33.992
 21
-36.168
  0
LINE
  8
0
 10
56.992
 11
57.335
 20
-36.168
 21
-37.7
  0
LINE
  8
0
 10
57.335
 11
65.884
 20
-37.7
 21
-35.789
  0
LINE
  8
0
 10
65.884
 11
65.723
 20
-35.789
 21
-36.132
  0
LINE
  8
0
 10
65.723
 11
64.465
 20
-36.132
 21
-38.114
  0
LINE
  8
0
 10
64.465
 11
54.609
 20
-38.114
 21
-39.676
  0
LINE
  8
0
 10
54.609
 11
54.854
 20
-39.676
 21
-41.226
  0
LINE
  8
0
 10
54.854
 11
63.343
 20
-41.226
 21
-39.882
  0
LINE
  8
0
 10
63.343
 11
61.943
 20
-39.882
 21
-42.087
  0
LINE
  8
0
 10
61.943
 11
52.01
 20
-42.087
 21
-43.026
  0
LINE
  8
0
 10
52.01
 11
52.157
 20
-43.026
 21
-44.589
  0
LINE
  8
0
 10
52.157
 11
60.879
 20
-44.589
 21
-43.765
  0
LINE
  8
0
 10
60.879
 11
60.676
 20
-43.765
 21
-44.084
  0
LINE
  8
0
 10
60.676
 11
59.179
 20
-44.084
 21
-45.893
  0
LINE
  8
0
 10
59.179
 11
49.205
 20
-45.893
 21
-46.207
  0
LINE
  8
0
 10
49.205
 11
49.255
 20
-46.207
 21
-47.776
  0
LINE
  8
0
 10
49.255
 11
57.845
 20
-47.776
 21
-47.506
  0
LINE
  8
0
 10
57.845
 11
56.18
 20
-47.506
 21
-49.519
  0
LINE
  8
0
 10
56.18
 11
46.207
 20
-49.519
 21
-49.205
  0
LINE
  8
0
 10
46.207
 11
46.158
 20
-49.205
 21
-50.775
  0
LINE
  8
0
 10
46.158
 11
54.914
 20
-50.775
 21
-51.05
  0
LINE
  8
0
 10
54.914
 11
54.673
 20
-51.05
 21
-51.341
  0
LINE
  8
0
 10
54.673
 11
52.961
 20
-51.341
 21
-52.949
  0
LINE
  8
0
 10
52.961
 11
43.026
 20
-52.949
 21
-52.01
  0
LINE
  8
0
 10
43.026
 11
42.878
 20
-52.01
 21
-53.573
  0
LINE
  8
0
 10
42.878
 11
51.435
 20
-53.573
 21
-54.382
  0
LINE
  8
0
 10
51.435
 11
49.531
 20
-54.382
 21
-56.17
  0
LINE
  8
0
 10
49.531
 11
39.676
 20
-56.17
 21
-54.609
  0
LINE
  8
0
 10
39.676
 11
39.43
 20
-54.609
 21
-56.159
  0
LINE
  8
0
 10
39.43
 11
48.082
 20
-56.159
 21
-57.53
  0
LINE
  8
0
 10
48.082
 11
47.807
 20
-57.53
 21
-57.788
  0
LINE
  8
0
 10
47.807
 11
45.907
 20
-57.788
 21
-59.169
  0
LINE
  8
0
 10
45.907
 11
36.168
 20
-59.169
 21
-56.992
  0
LINE
  8
0
 10
36.168
 11
35.826
 20
-56.992
 21
-58.524
  0
LINE
  8
0
 10
35.826
 11
44.213
 20
-58.524
 21
-60.399
  0
LINE
  8
0
 10
44.213
 11
42.1
 20
-60.399
 21
-61.935
  0
LINE
  8
0
 10
42.1
 11
32.518
 20
-61.935
 21
-59.151
  0
LINE
  8
0
 10
32.518
 11
32.08
 20
-59.151
 21
-60.658
  0
LINE
  8
0
 10
32.08
 11
40.493
 20
-60.658
 21
-63.102
  0
LINE
  8
0
 10
40.493
 11
40.187
 20
-63.102
 21
-63.325
  0
LINE
  8
0
 10
40.187
 11
38.129
 20
-63.325
 21
-64.456
  0
LINE
  8
0
 10
38.129
 11
28.74
 20
-64.456
 21
-61.076
  0
LINE
  8
0
 10
28.74
 11
28.208
 20
-61.076
 21
-62.553
  0
LINE
  8
0
 10
28.208
 11
36.295
 20
-62.553
 21
-65.464
  0
LINE
  8
0
 10
36.295
 11
34.006
 20
-65.464
 21
-66.723
  0
LINE
  8
0
 10
34.006
 11
24.848
 20
-66.723
 21
-62.76
  0
LINE
  8
0
 10
24.848
 11
24.225
 20
-62.76
 21
-64.201
  0
LINE
  8
0
 10
24.225
 11
32.265
 20
-64.201
 21
-67.68
  0
LINE
  8
0
 10
32.265
 11
31.933
 20
-67.68
 21
-67.862
  0
LINE
  8
0
 10
31.933
 11
29.75
 20
-67.862
 21
-68.727
  0
LINE
  8
0
 10
29.75
 11
20.859
 20
-68.727
 21
-64.196
  0
LINE
  8
0
 10
20.859
 11
20.146
 20
-64.196
 21
-65.595
  0
LINE
  8
0
 10
20.146
 11
27.804
 20
-65.595
 21
-69.497
  0
LINE
  8
0
 10
27.804
 11
25.375
 20
-69.497
 21
-70.459
  0
LINE
  8
0
 10
25.375
 11
16.787
 20
-70.459
 21
-65.379
  0
LINE
  8
0
 10
16.787
 11
15.987
 20
-65.379
 21
-66.731
  0
LINE
  8
0
 10
15.987
 11
23.528
 20
-66.731
 21
-71.19
  0
LINE
  8
0
 10
23.528
 11
23.176
 20
-71.19
 21
-71.329
  0
LINE
  8
0
 10
23.176
 11
20.902
 20
-71.329
 21
-71.913
  0
LINE
  8
0
 10
20.902
 11
12.648
 20
-71.913
 21
-66.304
  0
LINE
  8
0
 10
12.648
 11
11.766
 20
-66.304
 21
-67.603
  0
LINE
  8
0
 10
11.766
 11
18.874
 20
-67.603
 21
-72.434
  0
LINE
  8
0
 10
18.874
 11
16.344
 20
-72.434
 21
-73.083
  0
LINE
  8
0
 10
16.344
 11
8.46
 20
-73.083
 21
-66.968
  0
LINE
  8
0
 10
8.46
 11
7.498
 20
-66.968
 21
-68.208
  0
LINE
  8
0
 10
7.498
 11
14.42
 20
-68.208
 21
-73.578
  0
LINE
  8
0
 10
14.42
 11
14.054
 20
-73.578
 21
-73.672
  0
LINE
  8
0
 10
14.054
 11
11.724
 20
-73.672
 21
-73.966
  0
LINE
  8
0
 10
11.724
 11
4.238
 20
-73.966
 21
-67.367
  0
LINE
  8
0
 10
4.238
 11
3.2
 20
-67.367
 21
-68.544
  0
LINE
  8
0
 10
3.2
 11
9.647
 20
-68.544
 21
-74.228
  0
LINE
  8
0
 10
9.647
 11
7.056
 20
-74.228
 21
-74.556
  0
LINE
  8
0
 10
7.056
 11
0
 20
-74.556
 21
-67.5
  0
LINE
  8
0
 10
0
 11
-1.11
 20
-67.5
 21
-68.61
  0
LINE
  8
0
 10
-1.11
 11
5.084
 20
-68.61
 21
-74.805
  0
LINE
  8
0
 10
5.084
 11
4.709
 20
-74.805
 21
-74.852
  0
LINE
  8
0
 10
4.709
 11
2.361
 20
-74.852
 21
-74.852
  0
LINE
  8
0
 10
2.361
 11
-4.238
 20
-74.852
 21
-67.367
  0
LINE
  8
0
 10
-4.238
 11
-5.416
 20
-67.367
 21
-68.405
  0
LINE
  8
0
 10
-5.416
 11
0.268
 20
-68.405
 21
-74.852
  0
LINE
  8
0
 10
0.268
 11
-2.344
 20
-74.852
 21
-74.852
  0
LINE
  8
0
 10
-2.344
 11
-8.46
 20
-74.852
 21
-66.968
  0
LINE
  8
0
 10
-8.46
 11
-9.701
 20
-66.968
 21
-67.93
  0
LINE
  8
0
 10
-9.701
 11
-4.331
 20
-67.93
 21
-74.852
  0
LINE
  8
0
 10
-4.331
 11
-4.709
 20
-74.852
 21
-74.852
  0
LINE
  8
0
 10
-4.709
 11
-7.039
 20
-74.852
 21
-74.558
  0
LINE
  8
0
 10
-7.039
 11
-12.648
 20
-74.558
 21
-66.304
  0
LINE
  8
0
 10
-12.648
 11
-13.947
 20
-66.304
 21
-67.187
  0
LINE
  8
0
 10
-13.947
 11
-9.116
 20
-67.187
 21
-74.295
  0
LINE
  8
0
 10
-9.116
 11
-11.707
 20
-74.295
 21
-73.968
  0
LINE
  8
0
 10
-11.707
 11
-16.787
 20
-73.968
 21
-65.379
  0
LINE
  8
0
 10
-16.787
 11
-18.138
 20
-65.379
 21
-66.179
  0
LINE
  8
0
 10
-18.138
 11
-13.679
 20
-66.179
 21
-73.719
  0
LINE
  8
0
 10
-13.679
 11
-14.054
 20
-73.719
 21
-73.672
  0
LINE
  8
0
 10
-14.054
 11
-16.328
 20
-73.672
 21
-73.087
  0
LINE
  8
0
 10
-16.328
 11
-20.859
 20
-73.087
 21
-64.196
  0
LINE
  8
0
 10
-20.859
 11
-22.258
 20
-64.196
 21
-64.909
  0
LINE
  8
0
 10
-22.258
 11
-18.356
 20
-64.909
 21
-72.567
  0
LINE
  8
0
 10
-18.356
 11
-20.886
 20
-72.567
 21
-71.917
  0
LINE
  8
0
 10
-20.886
 11
-24.848
 20
-71.917
 21
-62.76
  0
LINE
  8
0
 10
-24.848
 11
-26.289
 20
-62.76
 21
-63.383
  0
LINE
  8
0
 10
-26.289
 11
-22.81
 20
-63.383
 21
-71.423
  0
LINE
  8
0
 10
-22.81
 11
-23.176
 20
-71.423
 21
-71.329
  0
LINE
  8
0
 10
-23.176
 11
-25.36
 20
-71.329
 21
-70.465
  0
LINE
  8
0
 10
-25.36
 11
-28.74
 20
-70.465
 21
-61.076
  0
LINE
  8
0
 10
-28.74
 11
-30.217
 20
-61.076
 21
-61.608
  0
LINE
  8
0
 10
-30.217
 11
-27.306
 20
-61.608
 21
-69.694
  0
LINE
  8
0
 10
-27.306
 11
-29.735
 20
-69.694
 21
-68.733
  0
LINE
  8
0
 10
-29.735
 11
-32.518
 20
-68.733
 21
-59.151
  0
LINE
  8
0
 10
-32.518
 11
-34.026
 20
-59.151
 21
-59.589
  0
LINE
  8
0
 10
-34.026
 11
-31.582
 20
-59.589
 21
-68.001
  0
LINE
  8
0
 10
-31.582
 11
-31.933
 20
-68.001
 21
-67.862
  0
LINE
  8
0
 10
-31.933
 11
-33.992
 20
-67.862
 21
-66.731
  0
LINE
  8
0
 10
-33.992
 11
-36.168
 20
-66.731
 21
-56.992
  0
LINE
  8
0
 10
-36.168
 11
-37.7
 20
-56.992
 21
-57.335
  0
LINE
  8
0
 10
-37.7
 11
-35.826
 20
-57.335
 21
-65.722
  0
LINE
  8
0
 10
-35.826
 11
-38.115
 20
-65.722
 21
-64.464
  0
LINE
  8
0
 10
-38.115
 11
-39.676
 20
-64.464
 21
-54.609
  0
LINE
  8
0
 10
-39.676
 11
-41.226
 20
-54.609
 21
-54.854
  0
LINE
  8
0
 10
-41.226
 11
-39.856
 20
-54.854
 21
-63.507
  0
LINE
  8
0
 10
-39.856
 11
-40.187
 20
-63.507
 21
-63.325
  0
LINE
  8
0
 10
-40.187
 11
-42.087
 20
-63.325
 21
-61.944
  0
LINE
  8
0
 10
-42.087
 11
-43.026
 20
-61.944
 21
-52.01
  0
LINE
  8
0
 10
-43.026
 11
-44.589
 20
-52.01
 21
-52.157
  0
LINE
  8
0
 10
-44.589
 11
-43.78
 20
-52.157
 21
-60.714
  0
LINE
  8
0
 10
-43.78
 11
-45.894
 20
-60.714
 21
-59.179
  0
LINE
  8
0
 10
-45.894
 11
-46.207
 20
-59.179
 21
-49.205
  0
LINE
  8
0
 10
-46.207
 11
-47.776
 20
-49.205
 21
-49.255
  0
LINE
  8
0
 10
-47.776
 11
-47.501
 20
-49.255
 21
-58.011
  0
LINE
  8
0
 10
-47.501
 11
-47.807
 20
-58.011
 21
-57.788
  0
LINE
  8
0
 10
-47.807
 11
-49.519
 20
-57.788
 21
-56.181
  0
LINE
  8
0
 10
-49.519
 11
-49.205
 20
-56.181
 21
-46.207
  0
LINE
  8
0
 10
-49.205
 11
-50.775
 20
-46.207
 21
-46.158
  0
LINE
  8
0
 10
-50.775
 11
-51.045
 20
-46.158
 21
-54.748
  0
LINE
  8
0
 10
-51.045
 11
-52.949
 20
-54.748
 21
-52.96
  0
LINE
  8
0
 10
-52.949
 11
-52.01
 20
-52.96
 21
-43.026
  0
LINE
  8
0
 10
-52.01
 11
-53.573
 20
-43.026
 21
-42.878
  0
LINE
  8
0
 10
-53.573
 11
-54.397
 20
-42.878
 21
-51.6
  0
LINE
  8
0
 10
-54.397
 11
-54.673
 20
-51.6
 21
-51.341
  0
LINE
  8
0
 10
-54.673
 11
-56.17
 20
-51.341
 21
-49.531
  0
LINE
  8
0
 10
-56.17
 11
-54.609
 20
-49.531
 21
-39.676
  0
LINE
  8
0
 10
-54.609
 11
-56.159
 20
-39.676
 21
-39.43
  0
LINE
  8
0
 10
-56.159
 11
-57.504
 20
-39.43
 21
-47.919
  0
LINE
  8
0
 10
-57.504
 11
-59.169
 20
-47.919
 21
-45.906
  0
LINE
  8
0
 10
-59.169
 11
-56.992
 20
-45.906
 21
-36.168
  0
LINE
  8
0
 10
-56.992
 11
-58.524
 20
-36.168
 21
-35.826
  0
LINE
  8
0
 10
-58.524
 11
-60.435
 20
-35.826
 21
-44.375
  0
LINE
  8
0
 10
-60.435
 11
-60.676
 20
-44.375
 21
-44.084
  0
LINE
  8
0
 10
-60.676
 11
-61.935
 20
-44.084
 21
-42.101
  0
LINE
  8
0
 10
-61.935
 11
-59.151
 20
-42.101
 21
-32.518
  0
LINE
  8
0
 10
-59.151
 11
-60.658
 20
-32.518
 21
-32.08
  0
LINE
  8
0
 10
-60.658
 11
-63.056
 20
-32.08
 21
-40.334
  0
LINE
  8
0
 10
-63.056
 11
-64.456
 20
-40.334
 21
-38.128
  0
LINE
  8
0
 10
-64.456
 11
-61.076
 20
-38.128
 21
-28.74
  0
LINE
  8
0
 10
-61.076
 11
-62.553
 20
-28.74
 21
-28.208
  0
LINE
  8
0
 10
-62.553
 11
-65.52
 20
-28.208
 21
-36.451
  0
LINE
  8
0
 10
-65.52
 11
-65.723
 20
-36.451
 21
-36.132
  0
LINE
  8
0
 10
-65.723
 11
-66.723
 20
-36.132
 21
-34.006
  0
LINE
  8
0
 10
-66.723
 11
-62.76
 20
-34.006
 21
-24.848
  0
LINE
  8
0
 10
-62.76
 11
-64.201
 20
-24.848
 21
-24.225
  0
LINE
  8
0
 10
-64.201
 11
-67.614
 20
-24.225
 21
-32.113
  0
LINE
  8
0
 10
-67.614
 11
-68.726
 20
-32.113
 21
-29.749
  0
LINE
  8
0
 10
-68.726
 11
-64.196
 20
-29.749
 21
-20.859
  0
LINE
  8
0
 10
-64.196
 11
-65.595
 20
-20.859
 21
-20.146
  0
LINE
  8
0
 10
-65.595
 11
-69.572
 20
-20.146
 21
-27.951
  0
LINE
  8
0
 10
-69.572
 11
-69.733
 20
-27.951
 21
-27.609
  0
LINE
  8
0
 10
-69.733
 11
-70.459
 20
-27.609
 21
-25.376
  0
LINE
  8
0
 10
-70.459
 11
-65.379
 20
-25.376
 21
-16.787
  0
LINE
  8
0
 10
-65.379
 11
-66.731
 20
-16.787
 21
-15.987
  0
LINE
  8
0
 10
-66.731
 11
-71.106
 20
-15.987
 21
-23.385
  0
LINE
  8
0
 10
-71.106
 11
-71.913
 20
-23.385
 21
-20.901
  0
LINE
  8
0
 10
-71.913
 11
-66.304
 20
-20.901
 21
-12.648
  0
LINE
  8
0
 10
-66.304
 11
-67.603
 20
-12.648
 21
-11.766
  0
LINE
  8
0
 10
-67.603
 11
-72.527
 20
-11.766
 21
-19.011
  0
LINE
  8
0
 10
-72.527
 11
-72.644
 20
-19.011
 21
-18.652
  0
LINE
  8
0
 10
-72.644
 11
-73.084
 20
-18.652
 21
-16.345
  0
LINE
  8
0
 10
-73.084
 11
-66.968
 20
-16.345
 21
-8.46
  0
LINE
  8
0
 10
-66.968
 11
-68.208
 20
-8.46
 21
-7.498
  0
LINE
  8
0
 10
-68.208
 11
-73.476
 20
-7.498
 21
-14.289
  0
LINE
  8
0
 10
-73.476
 11
-73.965
 20
-14.289
 21
-11.723
  0
LINE
  8
0
 10
-73.965
 11
-67.367
 20
-11.723
 21
-4.238
  0
LINE
  8
0
 10
-67.367
 11
-68.544
 20
-4.238
 21
-3.2
  0
LINE
  8
0
 10
-68.544
 11
-74.338
 20
-3.2
 21
-9.771
  0
LINE
  8
0
 10
-74.338
 11
-74.409
 20
-9.771
 21
-9.4
  0
LINE
  8
0
 10
-74.409
 11
-74.556
 20
-9.4
 21
-7.056
  0
LINE
  8
0
 10
-74.556
 11
-67.5
 20
-7.056
 21
0
  0
LINE
  8
0
 10
-67.5
 11
-68.61
 20
0
 21
1.11
  0
LINE
  8
0
 10
-68.61
 11
-74.687
 20
1.11
 21
-4.967
  0
LINE
  8
0
 10
-74.687
 11
-74.852
 20
-4.967
 21
-2.36
  0
LINE
  8
0
 10
-74.852
 11
-67.367
 20
-2.36
 21
4.238
  0
LINE
  8
0
 10
-67.367
 11
-68.405
 20
4.238
 21
5.416
  0
LINE
  8
0
 10
-68.405
 11
-74.976
 20
5.416
 21
-0.377
  0
LINE
  8
0
 10
-74.976
 11
-75
 20
-0.377
 21
0
  0
LINE
  8
0
 10
-1.5
 11
-1.488
 20
0
 21
0.188
  0
LINE
  8
0
 10
-1.488
 11
-1.453
 20
0.188
 21
0.373
  0
LINE
  8
0
 10
-1.453
 11
-1.395
 20
0.373
 21
0.552
  0
LINE
  8
0
 10
-1.395
 11
-1.314
 20
0.552
 21
0.723
  0
LINE
  8
0
 10
-1.314
 11
-1.214
 20
0.723
 21
0.882
  0
LINE
  8
0
 10
-1.214
 11
-1.093
 20
0.882
 21
1.027
  0
LINE
  8
0
 10
-1.093
 11
-0.956
 20
1.027
 21
1.156
  0
LINE
  8
0
 10
-0.956
 11
-0.804
 20
1.156
 21
1.266
  0
LINE
  8
0
 10
-0.804
 11
-0.639
 20
1.266
 21
1.357
  0
LINE
  8
0
 10
-0.639
 11
-0.464
 20
1.357
 21
1.427
  0
LINE
  8
0
 10
-0.464
 11
-0.281
 20
1.427
 21
1.473
  0
LINE
  8
0
 10
-0.281
 11
-0.094
 20
1.473
 21
1.497
  0
LINE
  8
0
 10
-0.094
 11
0.094
 20
1.497
 21
1.497
  0
LINE
  8
0
 10
0.094
 11
0.281
 20
1.497
 21
1.473
  0
LINE
  8
0
 10
0.281
 11
0.464
 20
1.473
 21
1.427
  0
LINE
  8
0
 10
0.464
 11
0.639
 20
1.427
 21
1.357
  0
LINE
  8
0
 10
0.639
 11
0.804
 20
1.357
 21
1.266
  0
LINE
  8
0
 10
0.804
 11
0.956
 20
1.266
 21
1.156
  0
LINE
  8
0
 10
0.956
 11
1.093
 20
1.156
 21
1.027
  0
LINE
  8
0
 10
1.093
 11
1.214
 20
1.027
 21
0.882
  0
LINE
  8
0
 10
1.214
 11
1.314
 20
0.882
 21
0.723
  0
LINE
  8
0
 10
1.314
 11
1.395
 20
0.723
 21
0.552
  0
LINE
  8
0
 10
1.395
 11
1.453
 20
0.552
 21
0.373
  0
LINE
  8
0
 10
1.453
 11
1.488
 20
0.373
 21
0.188
  0
LINE
  8
0
 10
1.488
 11
1.5
 20
0.188
 21
0
  0
LINE
  8
0
 10
1.5
 11
1.488
 20
0
 21
-0.188
  0
LINE
  8
0
 10
1.488
 11
1.453
 20
-0.188
 21
-0.373
  0
LINE
  8
0
 10
1.453
 11
1.395
 20
-0.373
 21
-0.552
  0
LINE
  8
0
 10
1.395
 11
1.314
 20
-0.552
 21
-0.723
  0
LINE
  8
0
 10
1.314
 11
1.214
 20
-0.723
 21
-0.882
  0
LINE
  8
0
 10
1.214
 11
1.093
 20
-0.882
 21
-1.027
  0
LINE
  8
0
 10
1.093
 11
0.956
 20
-1.027
 21
-1.156
  0
LINE
  8
0
 10
0.956
 11
0.804
 20
-1.156
 21
-1.266
  0
LINE
  8
0
 10
0.804
 11
0.639
 20
-1.266
 21
-1.357
  0
LINE
  8
0
 10
0.639
 11
0.464
 20
-1.357
 21
-1.427
  0
LINE
  8
0
 10
0.464
 11
0.281
 20
-1.427
 21
-1.473
  0
LINE
  8
0
 10
0.281
 11
0.094
 20
-1.473
 21
-1.497
  0
LINE
  8
0
 10
0.094
 11
-0.094
 20
-1.497
 21
-1.497
  0
LINE
  8
0
 10
-0.094
 11
-0.281
 20
-1.497
 21
-1.473
  0
LINE
  8
0
 10
-0.281
 11
-0.464
 20
-1.473
 21
-1.427
  0
LINE
  8
0
 10
-0.464
 11
-0.639
 20
-1.427
 21
-1.357
  0
LINE
  8
0
 10
-0.639
 11
-0.804
 20
-1.357
 21
-1.266
  0
LINE
  8
0
 10
-0.804
 11
-0.956
 20
-1.266
 21
-1.156
  0
LINE
  8
0
 10
-0.956
 11
-1.093
 20
-1.156
 21
-1.027
  0
LINE
  8
0
 10
-1.093
 11
-1.214
 20
-1.027
 21
-0.882
  0
LINE
  8
0
 10
-1.214
 11
-1.314
 20
-0.882
 21
-0.723
  0
LINE
  8
0
 10
-1.314
 11
-1.395
 20
-0.723
 21
-0.552
  0
LINE
  8
0
 10
-1.395
 11
-1.453
 20
-0.552
 21
-0.373
  0
LINE
  8
0
 10
-1.453
 11
-1.488
 20
-0.373
 21
-0.188
  0
LINE
  8
0
 10
-1.488
 11
-1.5
 20
-0.188
 21
0
  0
ENDSEC
  0
SECTION
  2
OBJECTS
  0
DICTIONARY
  0
ENDSEC
  0
EOF
