  0
SECTION
  2
BLOCKS
  0
ENDSEC
  0
SECTION
  2
ENTITIES
  0
LINE
  8
0
 10
-75
 11
-74.979
 20
0
 21
0.341
  0
LINE
  8
0
 10
-74.979
 11
-58.937
 20
0.341
 21
11.243
  0
LINE
  8
0
 10
-58.937
 11
-60.702
 20
11.243
 21
13.84
  0
LINE
  8
0
 10
-60.702
 11
-74.729
 20
13.84
 21
4.307
  0
LINE
  8
0
 10
-74.729
 11
-74.409
 20
4.307
 21
9.4
  0
LINE
  8
0
 10
-74.409
 11
-74.345
 20
9.4
 21
9.736
  0
LINE
  8
0
 10
-74.345
 11
-57.063
 20
9.736
 21
18.541
  0
LINE
  8
0
 10
-57.063
 11
-58.489
 20
18.541
 21
21.339
  0
LINE
  8
0
 10
-58.489
 11
-73.6
 20
21.339
 21
13.639
  0
LINE
  8
0
 10
-73.6
 11
-72.644
 20
13.639
 21
18.652
  0
LINE
  8
0
 10
-72.644
 11
-72.538
 20
18.652
 21
18.977
  0
LINE
  8
0
 10
-72.538
 11
-54.29
 20
18.977
 21
25.547
  0
LINE
  8
0
 10
-54.29
 11
-55.353
 20
25.547
 21
28.501
  0
LINE
  8
0
 10
-55.353
 11
-71.31
 20
28.501
 21
22.756
  0
LINE
  8
0
 10
-71.31
 11
-69.733
 20
22.756
 21
27.609
  0
LINE
  8
0
 10
-69.733
 11
-69.588
 20
27.609
 21
27.919
  0
LINE
  8
0
 10
-69.588
 11
-50.66
 20
27.919
 21
32.15
  0
LINE
  8
0
 10
-50.66
 11
-51.345
 20
32.15
 21
35.214
  0
LINE
  8
0
 10
-51.345
 11
-67.896
 20
35.214
 21
31.514
  0
LINE
  8
0
 10
-67.896
 11
-65.723
 20
31.514
 21
36.132
  0
LINE
  8
0
 10
-65.723
 11
-65.54
 20
36.132
 21
36.42
  0
LINE
  8
0
 10
-65.54
 11
-46.231
 20
36.42
 21
38.245
  0
LINE
  8
0
 10
-46.231
 11
-46.526
 20
38.245
 21
41.372
  0
LINE
  8
0
 10
-46.526
 11
-63.41
 20
41.372
 21
39.775
  0
LINE
  8
0
 10
-63.41
 11
-60.676
 20
39.775
 21
44.084
  0
LINE
  8
0
 10
-60.676
 11
-60.458
 20
44.084
 21
44.347
  0
LINE
  8
0
 10
-60.458
 11
-41.073
 20
44.347
 21
43.738
  0
LINE
  8
0
 10
-41.073
 11
-40.974
 20
43.738
 21
46.877
  0
LINE
  8
0
 10
-40.974
 11
-57.925
 20
46.877
 21
47.409
  0
LINE
  8
0
 10
-57.925
 11
-54.673
 20
47.409
 21
51.341
  0
LINE
  8
0
 10
-54.673
 11
-54.423
 20
51.341
 21
51.575
  0
LINE
  8
0
 10
-54.423
 11
-35.267
 20
51.575
 21
48.541
  0
LINE
  8
0
 10
-35.267
 11
-34.776
 20
48.541
 21
51.642
  0
LINE
  8
0
 10
-34.776
 11
-51.527
 20
51.642
 21
54.295
  0
LINE
  8
0
 10
-51.527
 11
-47.807
 20
54.295
 21
57.788
  0
LINE
  8
0
 10
-47.807
 11
-47.53
 20
57.788
 21
57.989
  0
LINE
  8
0
 10
-47.53
 11
-28.905
 20
57.989
 21
52.578
  0
LINE
  8
0
 10
-28.905
 11
-28.029
 20
52.578
 21
55.594
  0
LINE
  8
0
 10
-28.029
 11
-44.315
 20
55.594
 21
60.325
  0
LINE
  8
0
 10
-44.315
 11
-40.187
 20
60.325
 21
63.325
  0
LINE
  8
0
 10
-40.187
 11
-39.887
 20
63.325
 21
63.489
  0
LINE
  8
0
 10
-39.887
 11
-22.087
 20
63.489
 21
55.787
  0
LINE
  8
0
 10
-22.087
 11
-20.84
 20
55.787
 21
58.668
  0
LINE
  8
0
 10
-20.84
 11
-36.405
 20
58.668
 21
65.404
  0
LINE
  8
0
 10
-36.405
 11
-31.933
 20
65.404
 21
67.862
  0
LINE
  8
0
 10
-31.933
 11
-31.616
 20
67.862
 21
67.988
  0
LINE
  8
0
 10
-31.616
 11
-14.921
 20
67.988
 21
58.115
  0
LINE
  8
0
 10
-14.921
 11
-13.323
 20
58.115
 21
60.818
  0
LINE
  8
0
 10
-13.323
 11
-27.921
 20
60.818
 21
69.451
  0
LINE
  8
0
 10
-27.921
 11
-23.176
 20
69.451
 21
71.329
  0
LINE
  8
0
 10
-23.176
 11
-22.845
 20
71.329
 21
71.414
  0
LINE
  8
0
 10
-22.845
 11
-7.52
 20
71.414
 21
59.527
  0
LINE
  8
0
 10
-7.52
 11
-5.595
 20
59.527
 21
62.008
  0
LINE
  8
0
 10
-5.595
 11
-18.996
 20
62.008
 21
72.403
  0
LINE
  8
0
 10
-18.996
 11
-14.054
 20
72.403
 21
73.672
  0
LINE
  8
0
 10
-14.054
 11
-13.714
 20
73.672
 21
73.714
  0
LINE
  8
0
 10
-13.714
 11
0
 20
73.714
 21
60
  0
LINE
  8
0
 10
0
 11
2.22
 20
60
 21
62.22
  0
LINE
  8
0
 10
2.22
 11
-9.772
 20
62.22
 21
74.212
  0
LINE
  8
0
 10
-9.772
 11
-4.709
 20
74.212
 21
74.852
  0
LINE
  8
0
 10
-4.709
 11
-4.367
 20
74.852
 21
74.852
  0
LINE
  8
0
 10
-4.367
 11
7.52
 20
74.852
 21
59.527
  0
LINE
  8
0
 10
7.52
 11
10.001
 20
59.527
 21
61.451
  0
LINE
  8
0
 10
10.001
 11
-0.393
 20
61.451
 21
74.852
  0
LINE
  8
0
 10
-0.393
 11
4.709
 20
74.852
 21
74.852
  0
LINE
  8
0
 10
4.709
 11
5.048
 20
74.852
 21
74.809
  0
LINE
  8
0
 10
5.048
 11
14.921
 20
74.809
 21
58.115
  0
LINE
  8
0
 10
14.921
 11
17.624
 20
58.115
 21
59.713
  0
LINE
  8
0
 10
17.624
 11
8.991
 20
59.713
 21
74.311
  0
LINE
  8
0
 10
8.991
 11
14.054
 20
74.311
 21
73.672
  0
LINE
  8
0
 10
14.054
 11
14.385
 20
73.672
 21
73.587
  0
LINE
  8
0
 10
14.385
 11
22.087
 20
73.587
 21
55.787
  0
LINE
  8
0
 10
22.087
 11
24.969
 20
55.787
 21
57.034
  0
LINE
  8
0
 10
24.969
 11
18.234
 20
57.034
 21
72.598
  0
LINE
  8
0
 10
18.234
 11
23.176
 20
72.598
 21
71.329
  0
LINE
  8
0
 10
23.176
 11
23.494
 20
71.329
 21
71.203
  0
LINE
  8
0
 10
23.494
 11
28.905
 20
71.203
 21
52.578
  0
LINE
  8
0
 10
28.905
 11
31.921
 20
52.578
 21
53.454
  0
LINE
  8
0
 10
31.921
 11
27.189
 20
53.454
 21
69.74
  0
LINE
  8
0
 10
27.189
 11
31.933
 20
69.74
 21
67.862
  0
LINE
  8
0
 10
31.933
 11
32.233
 20
67.862
 21
67.697
  0
LINE
  8
0
 10
32.233
 11
35.267
 20
67.697
 21
48.541
  0
LINE
  8
0
 10
35.267
 11
38.368
 20
48.541
 21
49.032
  0
LINE
  8
0
 10
38.368
 11
35.715
 20
49.032
 21
65.783
  0
LINE
  8
0
 10
35.715
 11
40.187
 20
65.783
 21
63.325
  0
LINE
  8
0
 10
40.187
 11
40.464
 20
63.325
 21
63.124
  0
LINE
  8
0
 10
40.464
 11
41.073
 20
63.124
 21
43.738
  0
LINE
  8
0
 10
41.073
 11
44.211
 20
43.738
 21
43.837
  0
LINE
  8
0
 10
44.211
 11
43.679
 20
43.837
 21
60.788
  0
LINE
  8
0
 10
43.679
 11
47.807
 20
60.788
 21
57.788
  0
LINE
  8
0
 10
47.807
 11
48.056
 20
57.788
 21
57.554
  0
LINE
  8
0
 10
48.056
 11
46.231
 20
57.554
 21
38.245
  0
LINE
  8
0
 10
46.231
 11
49.357
 20
38.245
 21
37.95
  0
LINE
  8
0
 10
49.357
 11
50.953
 20
37.95
 21
54.834
  0
LINE
  8
0
 10
50.953
 11
54.673
 20
54.834
 21
51.341
  0
LINE
  8
0
 10
54.673
 11
54.891
 20
51.341
 21
51.078
  0
LINE
  8
0
 10
54.891
 11
50.66
 20
51.078
 21
32.15
  0
LINE
  8
0
 10
50.66
 11
53.724
 20
32.15
 21
31.465
  0
LINE
  8
0
 10
53.724
 11
57.424
 20
31.465
 21
48.016
  0
LINE
  8
0
 10
57.424
 11
60.676
 20
48.016
 21
44.084
  0
LINE
  8
0
 10
60.676
 11
60.859
 20
44.084
 21
43.795
  0
LINE
  8
0
 10
60.859
 11
54.29
 20
43.795
 21
25.547
  0
LINE
  8
0
 10
54.29
 11
57.244
 20
25.547
 21
24.483
  0
LINE
  8
0
 10
57.244
 11
62.989
 20
24.483
 21
40.44
  0
LINE
  8
0
 10
62.989
 11
65.723
 20
40.44
 21
36.132
  0
LINE
  8
0
 10
65.723
 11
65.869
 20
36.132
 21
35.822
  0
LINE
  8
0
 10
65.869
 11
57.063
 20
35.822
 21
18.541
  0
LINE
  8
0
 10
57.063
 11
59.861
 20
18.541
 21
17.115
  0
LINE
  8
0
 10
59.861
 11
67.561
 20
17.115
 21
32.226
  0
LINE
  8
0
 10
67.561
 11
69.733
 20
32.226
 21
27.609
  0
LINE
  8
0
 10
69.733
 11
69.839
 20
27.609
 21
27.284
  0
LINE
  8
0
 10
69.839
 11
58.937
 20
27.284
 21
11.243
  0
LINE
  8
0
 10
58.937
 11
61.534
 20
11.243
 21
9.478
  0
LINE
  8
0
 10
61.534
 11
71.067
 20
9.478
 21
23.505
  0
LINE
  8
0
 10
71.067
 11
72.644
 20
23.505
 21
18.652
  0
LINE
  8
0
 10
72.644
 11
72.708
 20
18.652
 21
18.316
  0
LINE
  8
0
 10
72.708
 11
59.882
 20
18.316
 21
3.767
  0
LINE
  8
0
 10
59.882
 11
62.237
 20
3.767
 21
1.691
  0
LINE
  8
0
 10
62.237
 11
73.452
 20
1.691
 21
14.412
  0
LINE
  8
0
 10
73.452
 11
74.409
 20
14.412
 21
9.4
  0
LINE
  8
0
 10
74.409
 11
74.43
 20
9.4
 21
9.059
  0
LINE
  8
0
 10
74.43
 11
59.882
 20
9.059
 21
-3.767
  0
LINE
  8
0
 10
59.882
 11
61.958
 20
-3.767
 21
-6.123
  0
LINE
  8
0
 10
61.958
 11
74.68
 20
-6.123
 21
5.093
  0
LINE
  8
0
 10
74.68
 11
75
 20
5.093
 21
0
  0
LINE
  8
0
 10
75
 11
74.979
 20
0
 21
-0.341
  0
LINE
  8
0
 10
74.979
 11
58.937
 20
-0.341
 21
-11.243
  0
LINE
  8
0
 10
58.937
 11
60.702
 20
-11.243
 21
-13.84
  0
LINE
  8
0
 10
60.702
 11
74.729
 20
-13.84
 21
-4.307
  0
LINE
  8
0
 10
74.729
 11
74.409
 20
-4.307
 21
-9.4
  0
LINE
  8
0
 10
74.409
 11
74.345
 20
-9.4
 21
-9.736
  0
LINE
  8
0
 10
74.345
 11
57.063
 20
-9.736
 21
-18.541
  0
LINE
  8
0
 10
57.063
 11
58.489
 20
-18.541
 21
-21.339
  0
LINE
  8
0
 10
58.489
 11
73.6
 20
-21.339
 21
-13.639
  0
LINE
  8
0
 10
73.6
 11
72.644
 20
-13.639
 21
-18.652
  0
LINE
  8
0
 10
72.644
 11
72.538
 20
-18.652
 21
-18.977
  0
LINE
  8
0
 10
72.538
 11
54.29
 20
-18.977
 21
-25.547
  0
LINE
  8
0
 10
54.29
 11
55.353
 20
-25.547
 21
-28.501
  0
LINE
  8
0
 10
55.353
 11
71.31
 20
-28.501
 21
-22.756
  0
LINE
  8
0
 10
71.31
 11
69.733
 20
-22.756
 21
-27.609
  0
LINE
  8
0
 10
69.733
 11
69.588
 20
-27.609
 21
-27.919
  0
LINE
  8
0
 10
69.588
 11
50.66
 20
-27.919
 21
-32.15
  0
LINE
  8
0
 10
50.66
 11
51.345
 20
-32.15
 21
-35.214
  0
LINE
  8
0
 10
51.345
 11
67.896
 20
-35.214
 21
-31.514
  0
LINE
  8
0
 10
67.896
 11
65.723
 20
-31.514
 21
-36.132
  0
LINE
  8
0
 10
65.723
 11
65.54
 20
-36.132
 21
-36.42
  0
LINE
  8
0
 10
65.54
 11
46.231
 20
-36.42
 21
-38.245
  0
LINE
  8
0
 10
46.231
 11
46.526
 20
-38.245
 21
-41.372
  0
LINE
  8
0
 10
46.526
 11
63.41
 20
-41.372
 21
-39.775
  0
LINE
  8
0
 10
63.41
 11
60.676
 20
-39.775
 21
-44.084
  0
LINE
  8
0
 10
60.676
 11
60.458
 20
-44.084
 21
-44.347
  0
LINE
  8
0
 10
60.458
 11
41.073
 20
-44.347
 21
-43.738
  0
LINE
  8
0
 10
41.073
 11
40.974
 20
-43.738
 21
-46.877
  0
LINE
  8
0
 10
40.974
 11
57.925
 20
-46.877
 21
-47.409
  0
LINE
  8
0
 10
57.925
 11
54.673
 20
-47.409
 21
-51.341
  0
LINE
  8
0
 10
54.673
 11
54.423
 20
-51.341
 21
-51.575
  0
LINE
  8
0
 10
54.423
 11
35.267
 20
-51.575
 21
-48.541
  0
LINE
  8
0
 10
35.267
 11
34.776
 20
-48.541
 21
-51.642
  0
LINE
  8
0
 10
34.776
 11
51.527
 20
-51.642
 21
-54.295
  0
LINE
  8
0
 10
51.527
 11
47.807
 20
-54.295
 21
-57.788
  0
LINE
  8
0
 10
47.807
 11
47.53
 20
-57.788
 21
-57.989
  0
LINE
  8
0
 10
47.53
 11
28.905
 20
-57.989
 21
-52.578
  0
LINE
  8
0
 10
28.905
 11
28.029
 20
-52.578
 21
-55.594
  0
LINE
  8
0
 10
28.029
 11
44.315
 20
-55.594
 21
-60.325
  0
LINE
  8
0
 10
44.315
 11
40.187
 20
-60.325
 21
-63.325
  0
LINE
  8
0
 10
40.187
 11
39.887
 20
-63.325
 21
-63.489
  0
LINE
  8
0
 10
39.887
 11
22.087
 20
-63.489
 21
-55.787
  0
LINE
  8
0
 10
22.087
 11
20.84
 20
-55.787
 21
-58.668
  0
LINE
  8
0
 10
20.84
 11
36.405
 20
-58.668
 21
-65.404
  0
LINE
  8
0
 10
36.405
 11
31.933
 20
-65.404
 21
-67.862
  0
LINE
  8
0
 10
31.933
 11
31.616
 20
-67.862
 21
-67.988
  0
LINE
  8
0
 10
31.616
 11
14.921
 20
-67.988
 21
-58.115
  0
LINE
  8
0
 10
14.921
 11
13.323
 20
-58.115
 21
-60.818
  0
LINE
  8
0
 10
13.323
 11
27.921
 20
-60.818
 21
-69.451
  0
LINE
  8
0
 10
27.921
 11
23.176
 20
-69.451
 21
-71.329
  0
LINE
  8
0
 10
23.176
 11
22.845
 20
-71.329
 21
-71.414
  0
LINE
  8
0
 10
22.845
 11
7.52
 20
-71.414
 21
-59.527
  0
LINE
  8
0
 10
7.52
 11
5.595
 20
-59.527
 21
-62.008
  0
LINE
  8
0
 10
5.595
 11
18.996
 20
-62.008
 21
-72.403
  0
LINE
  8
0
 10
18.996
 11
14.054
 20
-72.403
 21
-73.672
  0
LINE
  8
0
 10
14.054
 11
13.714
 20
-73.672
 21
-73.714
  0
LINE
  8
0
 10
13.714
 11
0
 20
-73.714
 21
-60
  0
LINE
  8
0
 10
0
 11
-2.22
 20
-60
 21
-62.22
  0
LINE
  8
0
 10
-2.22
 11
9.772
 20
-62.22
 21
-74.212
  0
LINE
  8
0
 10
9.772
 11
4.709
 20
-74.212
 21
-74.852
  0
LINE
  8
0
 10
4.709
 11
4.367
 20
-74.852
 21
-74.852
  0
LINE
  8
0
 10
4.367
 11
-7.52
 20
-74.852
 21
-59.527
  0
LINE
  8
0
 10
-7.52
 11
-10.001
 20
-59.527
 21
-61.451
  0
LINE
  8
0
 10
-10.001
 11
0.393
 20
-61.451
 21
-74.852
  0
LINE
  8
0
 10
0.393
 11
-4.709
 20
-74.852
 21
-74.852
  0
LINE
  8
0
 10
-4.709
 11
-5.048
 20
-74.852
 21
-74.809
  0
LINE
  8
0
 10
-5.048
 11
-14.921
 20
-74.809
 21
-58.115
  0
LINE
  8
0
 10
-14.921
 11
-17.624
 20
-58.115
 21
-59.713
  0
LINE
  8
0
 10
-17.624
 11
-8.991
 20
-59.713
 21
-74.311
  0
LINE
  8
0
 10
-8.991
 11
-14.054
 20
-74.311
 21
-73.672
  0
LINE
  8
0
 10
-14.054
 11
-14.385
 20
-73.672
 21
-73.587
  0
LINE
  8
0
 10
-14.385
 11
-22.087
 20
-73.587
 21
-55.787
  0
LINE
  8
0
 10
-22.087
 11
-24.969
 20
-55.787
 21
-57.034
  0
LINE
  8
0
 10
-24.969
 11
-18.234
 20
-57.034
 21
-72.598
  0
LINE
  8
0
 10
-18.234
 11
-23.176
 20
-72.598
 21
-71.329
  0
LINE
  8
0
 10
-23.176
 11
-23.494
 20
-71.329
 21
-71.203
  0
LINE
  8
0
 10
-23.494
 11
-28.905
 20
-71.203
 21
-52.578
  0
LINE
  8
0
 10
-28.905
 11
-31.921
 20
-52.578
 21
-53.454
  0
LINE
  8
0
 10
-31.921
 11
-27.189
 20
-53.454
 21
-69.74
  0
LINE
  8
0
 10
-27.189
 11
-31.933
 20
-69.74
 21
-67.862
  0
LINE
  8
0
 10
-31.933
 11
-32.233
 20
-67.862
 21
-67.697
  0
LINE
  8
0
 10
-32.233
 11
-35.267
 20
-67.697
 21
-48.541
  0
LINE
  8
0
 10
-35.267
 11
-38.368
 20
-48.541
 21
-49.032
  0
LINE
  8
0
 10
-38.368
 11
-35.715
 20
-49.032
 21
-65.783
  0
LINE
  8
0
 10
-35.715
 11
-40.187
 20
-65.783
 21
-63.325
  0
LINE
  8
0
 10
-40.187
 11
-40.464
 20
-63.325
 21
-63.124
  0
LINE
  8
0
 10
-40.464
 11
-41.073
 20
-63.124
 21
-43.738
  0
LINE
  8
0
 10
-41.073
 11
-44.211
 20
-43.738
 21
-43.837
  0
LINE
  8
0
 10
-44.211
 11
-43.679
 20
-43.837
 21
-60.788
  0
LINE
  8
0
 10
-43.679
 11
-47.807
 20
-60.788
 21
-57.788
  0
LINE
  8
0
 10
-47.807
 11
-48.056
 20
-57.788
 21
-57.554
  0
LINE
  8
0
 10
-48.056
 11
-46.231
 20
-57.554
 21
-38.245
  0
LINE
  8
0
 10
-46.231
 11
-49.357
 20
-38.245
 21
-37.95
  0
LINE
  8
0
 10
-49.357
 11
-50.953
 20
-37.95
 21
-54.834
  0
LINE
  8
0
 10
-50.953
 11
-54.673
 20
-54.834
 21
-51.341
  0
LINE
  8
0
 10
-54.673
 11
-54.891
 20
-51.341
 21
-51.078
  0
LINE
  8
0
 10
-54.891
 11
-50.66
 20
-51.078
 21
-32.15
  0
LINE
  8
0
 10
-50.66
 11
-53.724
 20
-32.15
 21
-31.465
  0
LINE
  8
0
 10
-53.724
 11
-57.424
 20
-31.465
 21
-48.016
  0
LINE
  8
0
 10
-57.424
 11
-60.676
 20
-48.016
 21
-44.084
  0
LINE
  8
0
 10
-60.676
 11
-60.859
 20
-44.084
 21
-43.795
  0
LINE
  8
0
 10
-60.859
 11
-54.29
 20
-43.795
 21
-25.547
  0
LINE
  8
0
 10
-54.29
 11
-57.244
 20
-25.547
 21
-24.483
  0
LINE
  8
0
 10
-57.244
 11
-62.989
 20
-24.483
 21
-40.44
  0
LINE
  8
0
 10
-62.989
 11
-65.723
 20
-40.44
 21
-36.132
  0
LINE
  8
0
 10
-65.723
 11
-65.869
 20
-36.132
 21
-35.822
  0
LINE
  8
0
 10
-65.869
 11
-57.063
 20
-35.822
 21
-18.541
  0
LINE
  8
0
 10
-57.063
 11
-59.861
 20
-18.541
 21
-17.115
  0
LINE
  8
0
 10
-59.861
 11
-67.561
 20
-17.115
 21
-32.226
  0
LINE
  8
0
 10
-67.561
 11
-69.733
 20
-32.226
 21
-27.609
  0
LINE
  8
0
 10
-69.733
 11
-69.839
 20
-27.609
 21
-27.284
  0
LINE
  8
0
 10
-69.839
 11
-58.937
 20
-27.284
 21
-11.243
  0
LINE
  8
0
 10
-58.937
 11
-61.534
 20
-11.243
 21
-9.478
  0
LINE
  8
0
 10
-61.534
 11
-71.067
 20
-9.478
 21
-23.505
  0
LINE
  8
0
 10
-71.067
 11
-72.644
 20
-23.505
 21
-18.652
  0
LINE
  8
0
 10
-72.644
 11
-72.708
 20
-18.652
 21
-18.316
  0
LINE
  8
0
 10
-72.708
 11
-59.882
 20
-18.316
 21
-3.767
  0
LINE
  8
0
 10
-59.882
 11
-62.237
 20
-3.767
 21
-1.691
  0
LINE
  8
0
 10
-62.237
 11
-73.452
 20
-1.691
 21
-14.412
  0
LINE
  8
0
 10
-73.452
 11
-74.409
 20
-14.412
 21
-9.4
  0
LINE
  8
0
 10
-74.409
 11
-74.43
 20
-9.4
 21
-9.059
  0
LINE
  8
0
 10
-74.43
 11
-59.882
 20
-9.059
 21
3.767
  0
LINE
  8
0
 10
-59.882
 11
-61.958
 20
3.767
 21
6.123
  0
LINE
  8
0
 10
-61.958
 11
-74.68
 20
6.123
 21
-5.093
  0
LINE
  8
0
 10
-74.68
 11
-75
 20
-5.093
 21
0
  0
LINE
  8
0
 10
-1.5
 11
-1.488
 20
0
 21
0.188
  0
LINE
  8
0
 10
-1.488
 11
-1.453
 20
0.188
 21
0.373
  0
LINE
  8
0
 10
-1.453
 11
-1.395
 20
0.373
 21
0.552
  0
LINE
  8
0
 10
-1.395
 11
-1.314
 20
0.552
 21
0.723
  0
LINE
  8
0
 10
-1.314
 11
-1.214
 20
0.723
 21
0.882
  0
LINE
  8
0
 10
-1.214
 11
-1.093
 20
0.882
 21
1.027
  0
LINE
  8
0
 10
-1.093
 11
-0.956
 20
1.027
 21
1.156
  0
LINE
  8
0
 10
-0.956
 11
-0.804
 20
1.156
 21
1.266
  0
LINE
  8
0
 10
-0.804
 11
-0.639
 20
1.266
 21
1.357
  0
LINE
  8
0
 10
-0.639
 11
-0.464
 20
1.357
 21
1.427
  0
LINE
  8
0
 10
-0.464
 11
-0.281
 20
1.427
 21
1.473
  0
LINE
  8
0
 10
-0.281
 11
-0.094
 20
1.473
 21
1.497
  0
LINE
  8
0
 10
-0.094
 11
0.094
 20
1.497
 21
1.497
  0
LINE
  8
0
 10
0.094
 11
0.281
 20
1.497
 21
1.473
  0
LINE
  8
0
 10
0.281
 11
0.464
 20
1.473
 21
1.427
  0
LINE
  8
0
 10
0.464
 11
0.639
 20
1.427
 21
1.357
  0
LINE
  8
0
 10
0.639
 11
0.804
 20
1.357
 21
1.266
  0
LINE
  8
0
 10
0.804
 11
0.956
 20
1.266
 21
1.156
  0
LINE
  8
0
 10
0.956
 11
1.093
 20
1.156
 21
1.027
  0
LINE
  8
0
 10
1.093
 11
1.214
 20
1.027
 21
0.882
  0
LINE
  8
0
 10
1.214
 11
1.314
 20
0.882
 21
0.723
  0
LINE
  8
0
 10
1.314
 11
1.395
 20
0.723
 21
0.552
  0
LINE
  8
0
 10
1.395
 11
1.453
 20
0.552
 21
0.373
  0
LINE
  8
0
 10
1.453
 11
1.488
 20
0.373
 21
0.188
  0
LINE
  8
0
 10
1.488
 11
1.5
 20
0.188
 21
0
  0
LINE
  8
0
 10
1.5
 11
1.488
 20
0
 21
-0.188
  0
LINE
  8
0
 10
1.488
 11
1.453
 20
-0.188
 21
-0.373
  0
LINE
  8
0
 10
1.453
 11
1.395
 20
-0.373
 21
-0.552
  0
LINE
  8
0
 10
1.395
 11
1.314
 20
-0.552
 21
-0.723
  0
LINE
  8
0
 10
1.314
 11
1.214
 20
-0.723
 21
-0.882
  0
LINE
  8
0
 10
1.214
 11
1.093
 20
-0.882
 21
-1.027
  0
LINE
  8
0
 10
1.093
 11
0.956
 20
-1.027
 21
-1.156
  0
LINE
  8
0
 10
0.956
 11
0.804
 20
-1.156
 21
-1.266
  0
LINE
  8
0
 10
0.804
 11
0.639
 20
-1.266
 21
-1.357
  0
LINE
  8
0
 10
0.639
 11
0.464
 20
-1.357
 21
-1.427
  0
LINE
  8
0
 10
0.464
 11
0.281
 20
-1.427
 21
-1.473
  0
LINE
  8
0
 10
0.281
 11
0.094
 20
-1.473
 21
-1.497
  0
LINE
  8
0
 10
0.094
 11
-0.094
 20
-1.497
 21
-1.497
  0
LINE
  8
0
 10
-0.094
 11
-0.281
 20
-1.497
 21
-1.473
  0
LINE
  8
0
 10
-0.281
 11
-0.464
 20
-1.473
 21
-1.427
  0
LINE
  8
0
 10
-0.464
 11
-0.639
 20
-1.427
 21
-1.357
  0
LINE
  8
0
 10
-0.639
 11
-0.804
 20
-1.357
 21
-1.266
  0
LINE
  8
0
 10
-0.804
 11
-0.956
 20
-1.266
 21
-1.156
  0
LINE
  8
0
 10
-0.956
 11
-1.093
 20
-1.156
 21
-1.027
  0
LINE
  8
0
 10
-1.093
 11
-1.214
 20
-1.027
 21
-0.882
  0
LINE
  8
0
 10
-1.214
 11
-1.314
 20
-0.882
 21
-0.723
  0
LINE
  8
0
 10
-1.314
 11
-1.395
 20
-0.723
 21
-0.552
  0
LINE
  8
0
 10
-1.395
 11
-1.453
 20
-0.552
 21
-0.373
  0
LINE
  8
0
 10
-1.453
 11
-1.488
 20
-0.373
 21
-0.188
  0
LINE
  8
0
 10
-1.488
 11
-1.5
 20
-0.188
 21
0
  0
ENDSEC
  0
SECTION
  2
OBJECTS
  0
DICTIONARY
  0
ENDSEC
  0
EOF
